<svg xmlns="http://www.w3.org/2000/svg" viewBox="0 0 120 120" fill="none">
  <defs>
    <filter id="glow"><feGaussianBlur stdDeviation="2" result="b"/><feMerge><feMergeNode in="b"/><feMergeNode in="SourceGraphic"/></feMerge></filter>
  </defs>
  <circle cx="60" cy="60" r="56" fill="#0b0f19" stroke="#ef4444" stroke-width="2"/>
  <circle cx="60" cy="60" r="48" fill="#ef4444" opacity="0.05"/>
  <!-- Skull/Helheim -->
  <g filter="url(#glow)" stroke="#ef4444" stroke-width="1.5" fill="none">
    <path d="M42 45 Q42 25 60 25 Q78 25 78 45 Q78 55 70 60 Q68 65 72 70 L60 65 L48 70 Q52 65 50 60 Q42 55 42 45Z"/>
    <circle cx="52" cy="42" r="5" fill="#ef4444" opacity="0.15"/>
    <circle cx="68" cy="42" r="5" fill="#ef4444" opacity="0.15"/>
    <path d="M50 55 Q60 58 70 55" opacity="0.6"/>
    <line x1="55" y1="55" x2="55" y2="60" opacity="0.5"/>
    <line x1="65" y1="55" x2="65" y2="60" opacity="0.5"/>
    <!-- Crossed bones -->
    <path d="M35 65 L48 55" opacity="0.4" stroke-width="2"/>
    <path d="M85 65 L72 55" opacity="0.4" stroke-width="2"/>
  </g>
  <text x="60" y="104" text-anchor="middle" fill="#ef4444" font-family="serif" font-size="14" font-weight="bold">ᚺ</text>
</svg>
