<svg xmlns="http://www.w3.org/2000/svg" viewBox="0 0 120 120" fill="none">
  <defs>
    <filter id="glow"><feGaussianBlur stdDeviation="2" result="b"/><feMerge><feMergeNode in="b"/><feMergeNode in="SourceGraphic"/></feMerge></filter>
  </defs>
  <circle cx="60" cy="60" r="56" fill="#0b0f19" stroke="#f472b6" stroke-width="2"/>
  <circle cx="60" cy="60" r="48" fill="#f472b6" opacity="0.05"/>
  <!-- Fire/Muspelheim -->
  <g filter="url(#glow)">
    <path d="M60 25 Q72 45 65 60 Q70 55 75 50 Q68 70 60 80 Q52 70 45 50 Q50 55 55 60 Q48 45 60 25Z" stroke="#f472b6" stroke-width="2" fill="#f472b6" fill-opacity="0.15"/>
    <path d="M60 40 Q65 50 62 58 Q68 55 70 50 Q66 62 60 68 Q54 62 50 50 Q52 55 58 58 Q55 50 60 40Z" stroke="#fb923c" stroke-width="1" fill="#fb923c" fill-opacity="0.1"/>
    <circle cx="60" cy="68" r="4" fill="#f472b6" opacity="0.3"/>
  </g>
  <text x="60" y="104" text-anchor="middle" fill="#f472b6" font-family="serif" font-size="14" font-weight="bold">ᚴ</text>
</svg>
