<svg xmlns="http://www.w3.org/2000/svg" viewBox="0 0 120 120" fill="none">
  <defs>
    <filter id="glow"><feGaussianBlur stdDeviation="2" result="b"/><feMerge><feMergeNode in="b"/><feMergeNode in="SourceGraphic"/></feMerge></filter>
  </defs>
  <circle cx="60" cy="60" r="56" fill="#0b0f19" stroke="#a78bfa" stroke-width="2"/>
  <circle cx="60" cy="60" r="48" fill="#a78bfa" opacity="0.05"/>
  <!-- AI brain/circuit -->
  <g filter="url(#glow)" stroke="#a78bfa" stroke-width="1.5" fill="none">
    <circle cx="60" cy="50" r="22"/>
    <path d="M48 50 Q55 38 60 50 Q65 62 72 50"/>
    <line x1="60" y1="28" x2="60" y2="72"/>
    <line x1="38" y1="50" x2="82" y2="50"/>
    <circle cx="60" cy="50" r="8" fill="#a78bfa" opacity="0.2"/>
    <circle cx="42" cy="38" r="3" fill="#a78bfa" opacity="0.6"/>
    <circle cx="78" cy="38" r="3" fill="#a78bfa" opacity="0.6"/>
    <circle cx="42" cy="62" r="3" fill="#a78bfa" opacity="0.6"/>
    <circle cx="78" cy="62" r="3" fill="#a78bfa" opacity="0.6"/>
    <line x1="45" y1="38" x2="60" y2="42" opacity="0.5"/>
    <line x1="75" y1="38" x2="60" y2="42" opacity="0.5"/>
    <line x1="45" y1="62" x2="60" y2="58" opacity="0.5"/>
    <line x1="75" y1="62" x2="60" y2="58" opacity="0.5"/>
  </g>
  <text x="60" y="104" text-anchor="middle" fill="#a78bfa" font-family="serif" font-size="14" font-weight="bold">ᚹ</text>
</svg>
